<svg width="16" height="17" viewBox="0 0 16 17" fill="none" xmlns="http://www.w3.org/2000/svg">
<g clip-path="url(#clip0_259_209)">
<path d="M5.32682 15.1712C5.69501 15.1712 5.99349 14.8727 5.99349 14.5046C5.99349 14.1364 5.69501 13.8379 5.32682 13.8379C4.95863 13.8379 4.66016 14.1364 4.66016 14.5046C4.66016 14.8727 4.95863 15.1712 5.32682 15.1712Z" stroke="#138E53" stroke-width="1.33333" stroke-linecap="round" stroke-linejoin="round"/>
<path d="M12.6598 15.1712C13.028 15.1712 13.3265 14.8727 13.3265 14.5046C13.3265 14.1364 13.028 13.8379 12.6598 13.8379C12.2916 13.8379 11.9932 14.1364 11.9932 14.5046C11.9932 14.8727 12.2916 15.1712 12.6598 15.1712Z" stroke="#138E53" stroke-width="1.33333" stroke-linecap="round" stroke-linejoin="round"/>
<path d="M1.35986 1.87109H2.6932L4.46653 10.1511C4.53158 10.4543 4.70031 10.7254 4.94367 10.9177C5.18703 11.1099 5.4898 11.2113 5.79986 11.2044H12.3199C12.6233 11.2039 12.9175 11.1 13.1539 10.9097C13.3902 10.7193 13.5546 10.4541 13.6199 10.1578L14.7199 5.20443H3.40653" stroke="#138E53" stroke-width="1.33333" stroke-linecap="round" stroke-linejoin="round"/>
</g>
<defs>
<clipPath id="clip0_259_209">
<rect width="16" height="16" fill="white" transform="translate(-0.00683594 0.503906)"/>
</clipPath>
</defs>
</svg>
