<svg width="25" height="25" viewBox="0 0 25 25" fill="none" xmlns="http://www.w3.org/2000/svg">
<path d="M17.46 1.93164H7.45996C4.69854 1.93164 2.45996 4.17022 2.45996 6.93164V16.9316C2.45996 19.6931 4.69854 21.9316 7.45996 21.9316H17.46C20.2214 21.9316 22.46 19.6931 22.46 16.9316V6.93164C22.46 4.17022 20.2214 1.93164 17.46 1.93164Z" stroke="#138E53" stroke-linecap="round" stroke-linejoin="round"/>
<path d="M16.4558 11.298C16.5792 12.1303 16.437 12.9803 16.0495 13.7271C15.662 14.4738 15.0489 15.0794 14.2974 15.4577C13.5459 15.836 12.6942 15.9676 11.8635 15.834C11.0329 15.7003 10.2655 15.3081 9.6706 14.7132C9.07568 14.1183 8.68349 13.3509 8.54983 12.5202C8.41616 11.6896 8.54783 10.8379 8.92609 10.0864C9.30435 9.33489 9.90995 8.72178 10.6567 8.33428C11.4035 7.94678 12.2535 7.80462 13.0858 7.92804C13.9347 8.05392 14.7206 8.4495 15.3275 9.05634C15.9343 9.66319 16.3299 10.4491 16.4558 11.298Z" stroke="#138E53" stroke-linecap="round" stroke-linejoin="round"/>
<path d="M17.96 6.43164H17.97" stroke="#138E53" stroke-linecap="round" stroke-linejoin="round"/>
</svg>
