<svg width="38" height="54" viewBox="0 0 38 54" fill="none" xmlns="http://www.w3.org/2000/svg">
<path d="M1.83691 40.6191H18.9997H36.1625" stroke="#138E53" stroke-width="2" stroke-miterlimit="10"/>
<path d="M5.71484 46.8457L19 46.8457L32.2852 46.8457" stroke="#138E53" stroke-width="2" stroke-miterlimit="10"/>
<path d="M18.5078 1.34766L18.5078 8.12406L18.5078 14.9005" stroke="#138E53" stroke-width="2" stroke-miterlimit="10"/>
<path d="M18.5815 14.207V39.7943" stroke="#138E53" stroke-width="2" stroke-miterlimit="10"/>
<path d="M29.4653 4.30273L18.5815 15.0329" stroke="#138E53" stroke-width="2" stroke-miterlimit="10"/>
<path d="M33.6513 8.42773L18.5815 23.2849" stroke="#138E53" stroke-width="2" stroke-miterlimit="10"/>
<path d="M36.1629 15.0312L18.5815 31.5392" stroke="#138E53" stroke-width="2" stroke-miterlimit="10"/>
<path d="M37.0001 22.4609L18.5815 40.6197" stroke="#138E53" stroke-width="2" stroke-miterlimit="10"/>
<path d="M36.9996 30.7148L26.9531 40.6196" stroke="#138E53" stroke-width="2" stroke-miterlimit="10"/>
<path d="M1 30.7148L11.0465 40.6196" stroke="#138E53" stroke-width="2" stroke-miterlimit="10"/>
<path d="M8.53516 4.30273L18.5817 15.0329" stroke="#138E53" stroke-width="2" stroke-miterlimit="10"/>
<path d="M4.34863 8.42773L18.5812 23.2849" stroke="#138E53" stroke-width="2" stroke-miterlimit="10"/>
<path d="M1.83691 14.207L18.5811 31.5404" stroke="#138E53" stroke-width="2" stroke-miterlimit="10"/>
<path d="M1 21.6367L18.5814 39.7955" stroke="#138E53" stroke-width="2" stroke-miterlimit="10"/>
<path d="M19 53C9.05986 53 1 44.8177 1 34.7224V19.2776C1 9.18415 9.05986 1 19 1C28.9419 1 37 9.18415 37 19.2776V34.7224C37.0018 44.8177 28.9419 53 19 53Z" stroke="#138E53" stroke-width="2" stroke-miterlimit="10"/>
</svg>
