<svg width="22" height="23" viewBox="0 0 22 23" fill="none" xmlns="http://www.w3.org/2000/svg">
<path d="M0.599006 1.09209C0.54218 1.01728 0.595533 0.909749 0.689478 0.909749L1.82821 0.909749C1.86372 0.909749 1.89719 0.926356 1.91867 0.954635L17.6484 21.6599C17.7052 21.7347 17.6519 21.8422 17.5579 21.8422L16.4178 21.8422C16.3823 21.8422 16.3488 21.8256 16.3273 21.7973L0.599006 1.09209Z" fill="#138E53"/>
<path d="M4.35242 1.09013C4.2956 1.01533 4.34895 0.907796 4.4429 0.907796L5.58162 0.907796C5.61714 0.907796 5.65061 0.924403 5.67209 0.952682L21.4018 21.6579C21.4586 21.7327 21.4053 21.8403 21.3113 21.8403L20.1712 21.8403C20.1357 21.8403 20.1022 21.8237 20.0807 21.7954L4.35242 1.09013Z" fill="#138E53"/>
<rect x="1.73828" y="0.910156" width="3.67027" height="1.13614" rx="0.113614" fill="#138E53"/>
<rect x="16.52" y="20.7031" width="3.96762" height="1.13614" rx="0.113614" fill="#138E53"/>
<path d="M18.3259 1.00447C18.3475 0.979607 18.3788 0.96533 18.4117 0.96533L19.6125 0.96533C19.7099 0.96533 19.7622 1.07985 19.6983 1.15341L12.2745 9.70863C12.2334 9.75602 12.1616 9.7611 12.1142 9.71998L11.4277 9.12429C11.3803 9.08316 11.3753 9.01139 11.4164 8.964L18.3259 1.00447Z" fill="#138E53"/>
<path d="M9.34061 11.7021C9.38317 11.6528 9.45841 11.6493 9.50538 11.6944L10.1484 12.3128C10.1922 12.3549 10.1952 12.4239 10.1551 12.4696L1.95113 21.8249C1.9297 21.8493 1.89884 21.8634 1.86634 21.8636L0.815977 21.8694C0.718441 21.8699 0.665614 21.7554 0.729335 21.6815L9.34061 11.7021Z" fill="#138E53"/>
</svg>
